<svg width="84" height="84" xmlns="http://www.w3.org/2000/svg" xmlns:xlink="http://www.w3.org/1999/xlink" xml:space="preserve" overflow="hidden"><defs><clipPath id="clip0"><rect x="565" y="465" width="84" height="84"/></clipPath><linearGradient x1="606.893" y1="516.959" x2="606.893" y2="498.497" gradientUnits="userSpaceOnUse" spreadMethod="pad" id="fill1"><stop offset="0" stop-color="#29BADE"/><stop offset="1" stop-color="#50E6FF"/></linearGradient><linearGradient x1="595.081" y1="533.255" x2="595.081" y2="480.745" gradientUnits="userSpaceOnUse" spreadMethod="pad" id="fill2"><stop offset="0" stop-color="#32BEDD"/><stop offset="0.041" stop-color="#32BEDD"/><stop offset="0.495" stop-color="#50E6FF"/><stop offset="0.92" stop-color="#C3F1FF"/><stop offset="1" stop-color="#C3F1FF"/></linearGradient><linearGradient x1="599.832" y1="511.886" x2="599.832" y2="466.185" gradientUnits="userSpaceOnUse" spreadMethod="pad" id="fill3"><stop offset="0" stop-color="#0078D4"/><stop offset="0.244" stop-color="#0078D4"/><stop offset="0.6" stop-color="#2E8CE1"/><stop offset="0.933" stop-color="#589EED"/><stop offset="1" stop-color="#589EED"/></linearGradient><linearGradient x1="628.597" y1="533.255" x2="628.597" y2="484.567" gradientUnits="userSpaceOnUse" spreadMethod="pad" id="fill4"><stop offset="0" stop-color="#005BA1"/><stop offset="0.399" stop-color="#0078D4"/><stop offset="0.857" stop-color="#5EA0EF"/><stop offset="1" stop-color="#5EA0EF"/></linearGradient></defs><g clip-path="url(#clip0)" transform="translate(-565 -465)"><path d="M614.359 506.067C610.183 506.067 606.795 502.683 606.79 498.507 601.69 498.563 597.601 502.744 597.658 507.844 597.715 512.944 601.895 517.033 606.995 516.976 612.096 516.919 616.184 512.739 616.127 507.639 616.121 507.053 616.059 506.468 615.941 505.894 615.421 506.006 614.891 506.064 614.359 506.067Z" fill="url(#fill1)"/><path d="M625.023 517.411C624.684 514.081 623.641 510.861 621.961 507.966 621.474 515.875 614.924 522.045 607 522.059 606.641 522.059 606.305 521.98 605.955 521.952 598.022 521.848 590.421 518.747 584.679 513.272 579.742 508.529 576.081 502.618 574.035 496.085 571.333 498.54 568.775 501.148 566.372 503.897 564.65 505.486 564.543 508.169 566.132 509.891 566.208 509.974 566.289 510.054 566.372 510.131 571.537 516.325 577.621 521.688 584.413 526.035 591.244 530.716 599.331 533.223 607.611 533.227 612.993 533.257 618.303 531.994 623.095 529.545 623.399 529.405 623.66 529.218 623.959 529.078 625.021 525.286 625.382 521.333 625.023 517.411Z" fill="url(#fill2)"/><path d="M593.737 514C590.552 508.133 591.681 500.859 596.495 496.234 600.278 491.142 605.581 487.383 611.639 485.501 614.941 484.492 618.369 483.952 621.821 483.895 619.044 482.692 616.135 481.815 613.155 481.282 604.995 479.908 596.609 481.292 589.323 485.216 585.246 487.33 581.399 489.861 577.843 492.767 579.521 499.174 582.909 505.005 587.643 509.637 589.469 511.359 591.519 512.826 593.737 514Z" fill="url(#fill3)"/><path d="M647.74 504.102C643.18 498.639 637.913 493.807 632.079 489.733 625.978 488.067 619.538 488.1 613.454 489.827 611.626 490.383 609.863 491.134 608.195 492.067 610.801 492.25 613.314 493.113 615.484 494.568 615.678 494.624 615.864 494.707 616.035 494.815 623.295 499.69 628.186 507.379 629.526 516.021 629.953 519.372 629.902 522.768 629.372 526.105 636.287 521.711 642.477 516.268 647.721 509.973 649.347 508.459 649.438 505.913 647.924 504.287 647.865 504.224 647.803 504.162 647.74 504.102Z" fill="url(#fill4)"/></g></svg>